<svg width="500" height="501" viewBox="0 0 500 501" fill="none" xmlns="http://www.w3.org/2000/svg">
<path d="M157.022 143.809C139.415 143.809 125.143 158.101 125.143 175.732V262.326C125.143 262.989 125.223 263.633 125.375 264.249C125.425 264.449 125.514 264.637 125.629 264.808L182.973 350.4C184.073 352.042 186.635 351.263 186.635 349.287V205.66C186.635 203.423 188.446 201.609 190.68 201.609H309.358C311.592 201.609 313.403 203.423 313.403 205.66V302.276C313.403 303.116 312.49 303.692 311.651 303.692H213.756C210.039 303.692 208.289 308.29 211.063 310.766L262.239 356.121C262.608 356.449 263.092 356.628 263.586 356.624C267.141 356.6 259.255 356.68 264.184 356.63C273.75 356.532 283.059 356.631 291.777 356.631H343.015C360.621 356.631 374.894 342.338 374.894 324.708V226.277C374.894 226.132 374.89 225.987 374.882 225.843C374.696 219.955 372.259 214.12 367.571 209.625L306.239 150.829C300.641 145.463 293.049 143.173 285.75 143.959C285.524 143.984 285.297 143.971 285.073 143.931C284.619 143.851 284.151 143.809 283.674 143.809H157.022Z" fill="white"/>
</svg>
