<svg width="500" height="501" viewBox="0 0 500 501" fill="none" xmlns="http://www.w3.org/2000/svg">
<path d="M101.235 79.7632C73.065 79.7632 50.2285 102.631 50.2285 130.841V269.39C50.2285 270.516 50.374 271.608 50.6473 272.648C50.6997 272.848 50.7885 273.036 50.9033 273.207L144.954 413.589C146.055 415.231 148.616 414.452 148.616 412.476V178.725C148.616 175.145 151.514 172.244 155.088 172.244H344.973C348.548 172.244 351.446 175.145 351.446 178.725V333.31C351.446 334.655 349.984 335.576 348.641 335.576H192.009C186.063 335.576 183.263 342.933 187.702 346.896L269.927 419.768C270.297 420.096 270.778 420.275 271.272 420.272C278.076 420.223 264.61 420.36 272.694 420.277C288.001 420.121 302.894 420.279 316.844 420.279H398.824C426.994 420.279 449.831 397.411 449.831 369.202V211.713C449.831 211.48 449.825 211.248 449.812 211.018C449.514 201.597 445.615 192.261 438.114 185.07L339.983 90.9961C330.974 82.3597 318.737 78.7034 306.996 80.0271C306.77 80.0525 306.543 80.0402 306.32 79.997C305.53 79.8436 304.714 79.7632 303.878 79.7632H101.235Z" fill="#2C2C2C"/>
</svg>
